<!-- CryptoTrading Logo (Indigo) -->
<svg width="560" height="160" viewBox="0 0 560 160" xmlns="http://www.w3.org/2000/svg" role="img" aria-label="CryptoTrading logo">
  <defs>
    <style>
      .accent { fill: #4F46E5; } /* Indigo 600 */
      .text   { fill: #0B0B0E; font: 600 44px/1.1 'Inter', system-ui, -apple-system, Segoe UI, Roboto, sans-serif; }
    </style>
  </defs>
  <!-- Icon -->
  <g transform="translate(10,10)">
    <!-- Outer C -->
    <path class="accent" d="M70,0c-38.66,0-70,31.34-70,70s31.34,70,70,70c18.77,0,35.84-7.33,48.71-19.28l-12.3-12.3
      c-9.16,8.52-21.45,13.78-35.01,13.78C44.51,122.2,22.8,100.49,22.8,75S44.51,27.8,70,27.8c13.56,0,25.85,5.26,35.01,13.78l12.3-12.3
      C105.84,7.33,88.77,0,70,0z"></path>
    <!-- Inner chart/arrow (candles + up arrow) -->
    <g transform="translate(34,36)">
      <!-- Candles -->
      <rect class="accent" x="0" y="26" width="8" height="24" rx="2"></rect>
      <rect class="accent" x="16" y="16" width="8" height="34" rx="2"></rect>
      <rect class="accent" x="32" y="8" width="8" height="42" rx="2"></rect>
      <!-- Up arrow -->
      <path class="accent" d="M10,42l16-16 10,10 18-18v10h8V8h-20v8h10l-18,18-10-10L6,38l4,4z"></path>
    </g>
  </g>

  <!-- Wordmark -->
  <text class="text" x="160" y="95">CryptoTrading</text>
</svg>
